# xmcd
#
# Track frame offsets: 
#        150
#        18587
#        42337
#        64887
#
# Disc length: 1216 seconds
#
# Revision: 0
# Processed by: cddbd v1.5.2PL0 Copyright (c) Steve Scherf et al.
# Submitted via: ExactAudioCopy v1.0b1
#
DISCID=3104be04
DTITLE=Ava and Stone - All Aboard CDM
DYEAR=1994
DGENRE=Euro-House
TTITLE0=All Aboard (Radio Mix)
TTITLE1=All Aboard (Extended Mix)
TTITLE2=All Aboard (Melt The Guns Remix)
TTITLE3=All Aboard (This Is Not A Party Ride Remix)
EXTD=
EXTT0=
EXTT1=
EXTT2=
EXTT3=
PLAYORDER=
